<svg xmlns="http://www.w3.org/2000/svg" xmlns:xlink="http://www.w3.org/1999/xlink" id="Слой_1" x="0px" y="0px" viewBox="100 100 170 200" style="enable-background:new 0 0 354.3 425.2;" xml:space="preserve"> <style type="text/css"> .st0{fill-rule:evenodd;clip-rule:evenodd;fill:#ffffff;} .st1{fill:#000000;} </style>
    <path class="st0" d="M172.4,215.6c-0.6,0.7-1.4,1.2-2.2,1.6c-2.1,0.8-4.5,0.4-6.2-1.1c-1.2-1.1-1.9-2.5-2-4.1 c-0.1-1.6,0.4-3.1,1.5-4.3c0.6-0.7,1.4-1.2,2.2-1.6c0.7-0.3,1.5-0.4,2.3-0.4c1.4,0,2.8,0.5,3.9,1.5c1.2,1.1,1.9,2.5,2,4.1 C174,212.9,173.4,214.4,172.4,215.6 M177.9,200.5c-2.8-2.5-6.3-3.8-9.9-3.8c-1.9,0-3.8,0.4-5.7,1.1c-2.1,0.9-4,2.2-5.6,3.9 c-2.7,3-4,6.8-3.8,10.8c0.2,4,2,7.7,5,10.3c2.8,2.4,6.3,3.8,9.9,3.8c1.9,0,3.8-0.4,5.7-1.1c2.1-0.9,4-2.2,5.6-3.9 c2.7-3,4-6.8,3.8-10.8C182.6,206.8,180.9,203.1,177.9,200.5"/>
    <path class="st0" d="M197.1,237.6c9.4-10.6,12.3-25.4,7.7-38.8c-0.3-0.7-0.7-1.4-1.3-1.9c-1.2-1.1-2.9-1.4-4.5-0.9l-0.2,0.1 c-2.2,0.9-3.4,3.4-2.6,5.7c3.6,10.3,1.3,21.7-5.9,29.8c-3.1,3.5-6.8,6.1-11.1,7.8c-3.6,1.5-7.5,2.2-11.3,2.2 c-7.3,0-14.3-2.7-19.9-7.6c-6-5.3-9.5-12.6-10-20.6c-0.5-8,2.2-15.7,7.5-21.7c3.1-3.5,6.9-6.2,11.1-7.9c3.2-1.3,6.5-2,10-2.1 c2.4-0.1,4.4-2.3,4.3-4.7c-0.1-1.2-0.6-2.3-1.5-3.1c-0.9-0.8-2.1-1.2-3.2-1.2c-4.5,0.2-8.9,1.1-13.1,2.8 c-5.6,2.2-10.4,5.7-14.5,10.2c-14.3,16.1-12.9,40.8,3.2,55.1c7.2,6.4,16.3,9.9,25.8,9.9c5,0,10-1,14.7-2.9 C188.2,245.5,193,242.1,197.1,237.6"/>
    <path class="st0" d="M181.9,185.1c2.5,1.3,4.8,3,6.8,4.9c0.9,0.8,2,1.2,3.1,1.2c0.6,0,1.1-0.1,1.6-0.3c0.6-0.2,1.1-0.6,1.6-1.1 c1.7-1.8,1.7-4.7-0.1-6.4c-0.4-0.3-0.7-0.7-1.1-1c-2.4-2.1-5-3.9-7.7-5.4c-1.2-0.6-2.6-0.7-3.8-0.2c-1,0.4-1.8,1.1-2.3,2.1 c-0.6,1.1-0.7,2.3-0.3,3.5C180,183.6,180.8,184.6,181.9,185.1"/>
    <path class="st0" d="M198,260.2c-1.4-1.2-3.5-1.5-5.1-0.6c-2.2,1.2-4.5,2.2-6.9,3l-0.2,0.1c-2.2,0.9-3.4,3.4-2.6,5.7 c0.4,1.1,1.2,2,2.3,2.6c0.6,0.3,1.3,0.4,1.9,0.4c0.5,0,1-0.1,1.5-0.3c2.8-1,5.5-2.2,8.1-3.5c2.2-1.2,3.1-3.9,1.9-6.1 C198.8,261,198.4,260.5,198,260.2"/>
    <path class="st0" d="M209.8,164.6c-11.6-10.3-26.4-16-41.7-16c-4.2,0-8.5,0.4-12.7,1.3c-0.3,0.1-0.6,0.1-0.8,0.2 c-2,0.8-3.2,2.9-2.7,5.1c0.2,1.2,0.9,2.2,1.9,2.9c1,0.7,2.2,0.9,3.4,0.7c3.6-0.7,7.2-1.1,10.9-1.1c13.1,0,25.8,4.9,35.7,13.7 c10.8,9.6,17.1,22.8,18,37.2c0.8,14.4-4,28.3-13.5,39c-0.8,0.9-1.7,1.9-2.7,2.8c-0.9,0.8-1.3,2-1.4,3.2c0,1.2,0.4,2.3,1.3,3.2 c0.8,0.9,2,1.4,3.2,1.4c0.6,0,1.2-0.1,1.7-0.3c0.5-0.2,1-0.5,1.5-1c1-1,2.1-2.1,3.1-3.3c11.2-12.6,16.8-28.7,15.8-45.6 C229.8,191.2,222.4,175.7,209.8,164.6"/>
    <path class="st0" d="M170.1,265.6c-14,0.6-27.6-4.3-38.1-13.6c-10.8-9.6-17.1-22.8-18-37.2c-0.8-14.4,4-28.3,13.5-39 c4-4.5,8.6-8.2,13.8-11.2c1.1-0.6,1.8-1.6,2.1-2.7c0.3-1.2,0.2-2.4-0.4-3.4c-0.3-0.4-0.6-0.8-0.9-1.2c-1.3-1.1-3.1-1.4-4.7-0.8 c-0.2,0.1-0.4,0.2-0.5,0.3c-6,3.4-11.5,7.8-16.1,13c-11.2,12.6-16.8,28.7-15.8,45.6c1,16.8,8.4,32.2,21,43.4 c11.5,10.3,26.4,15.9,41.8,15.9c0.9,0,1.7,0,2.6-0.1c2.4-0.1,4.4-2.3,4.3-4.7c0-1.2-0.6-2.3-1.5-3.1 C172.5,266,171.3,265.6,170.1,265.6"/>
    <path class="st0" d="M248.4,179.8c-0.8-0.7-1.9-1.1-3-1.1c-0.5,0-1.1,0.1-1.5,0.3l-0.1,0c-2.3,1-3.5,3.4-2.6,5.8 c2.9,7.8,4.5,16.1,4.7,24.4c0,1.2,0.5,2.3,1.4,3.1c0.8,0.8,1.9,1.2,3.1,1.2l0.1,0c2.4-0.1,4.4-2.2,4.4-4.7 c-0.3-9.3-2.1-18.5-5.3-27.3C249.4,180.9,248.9,180.3,248.4,179.8"/>
    <path class="st0" d="M241.4,165c-4.3-6.8-9.6-12.9-15.6-18.3c-11-9.8-24.4-16.7-38.8-19.9c-0.9-0.2-1.8-0.1-2.7,0.2 c-1.4,0.6-2.4,1.8-2.7,3.2c-0.5,2.4,1,4.9,3.4,5.4c12.8,2.9,24.8,9,34.7,17.8c5.4,4.8,10.1,10.3,14,16.4c0.8,1.3,2.3,2.1,3.8,2.1 c0.6,0,1.2-0.1,1.7-0.3c0.3-0.1,0.5-0.2,0.7-0.4C242.1,169.8,242.7,167.1,241.4,165"/>
    <path class="st0" d="M161.1,133.9c0.1,0,0.2,0,0.4,0c2.2-0.2,4.4-0.3,6.6-0.3c0.4,0,0.8,0,1.2,0c2.4,0,4.5-2,4.5-4.4 c0-1.3-0.5-2.6-1.5-3.4c-0.8-0.7-1.8-1.1-2.9-1.1c-2.9,0-5.8,0.1-8.6,0.3c-0.5,0-0.9,0.1-1.3,0.3c-1.8,0.7-3,2.6-2.8,4.6 C156.8,132.1,158.7,133.9,161.1,133.9"/>
    <path class="st0" d="M260.9,150.8c-5.1-7.8-11.2-15-18.2-21.3c-6.9-6.3-14.5-11.7-22.7-16c-1.1-0.6-2.5-0.7-3.8-0.2 c-1,0.4-1.8,1.1-2.3,2.1c-0.6,1.1-0.7,2.3-0.3,3.5c0.4,1.1,1.1,2.1,2.2,2.6c15.2,8.1,28.2,19.9,37.6,34.3c0.8,1.3,2.2,2,3.8,2 c0.6,0,1.1-0.1,1.6-0.3c0.3-0.1,0.6-0.3,0.8-0.4c1-0.7,1.7-1.7,1.9-2.9C261.8,153,261.5,151.8,260.9,150.8"/>
</svg>